<svg width="48" height="48" viewBox="0 0 48 48" fill="none" xmlns="http://www.w3.org/2000/svg">
<path d="M16.1953 15.2913L22.5 19H25.5L31.8047 15.2913C33.1649 14.4913 34 13.0311 34 11.4531C34 8.99371 32.0063 7 29.5469 7H29.4062C27.0877 7 25.0438 8.52077 24.3776 10.7415L24 12L23.6224 10.7415C22.9562 8.52077 20.9123 7 18.5938 7H18.4531C15.9937 7 14 8.99371 14 11.4531C14 13.0311 14.8351 14.4913 16.1953 15.2913Z" fill="#339900"/>
<path fill-rule="evenodd" clip-rule="evenodd" d="M22.5 19H25.5L31.8047 15.2914C33.1648 14.4913 34 13.0312 34 11.4531C34 9.21336 32.3464 7.3598 30.1935 7.04663C31.0094 8.02826 31.5 9.28985 31.5 10.666C31.5 12.7238 30.3844 14.6197 28.5856 15.6191L22.5 19Z" fill="#336600"/>
<path d="M13.3536 31.9696L18 25L18 22L13.3536 15.0304C12.508 13.7619 11.0843 13 9.55971 13C7.04145 13 5 15.0415 5 17.5597L5 17.864C5 20.3189 6.61023 22.4831 8.96155 23.1885L10 23.5L8.96155 23.8115C6.61023 24.5169 5 26.6811 5 29.136L5 29.4403C5 31.9585 7.04145 34 9.55971 34C11.0843 34 12.508 33.2381 13.3536 31.9696Z" fill="#339900"/>
<path fill-rule="evenodd" clip-rule="evenodd" d="M17.9987 22L13.7391 28.3894C12.6518 30.0204 10.8214 31 8.86122 31C7.38235 31 6.03138 30.4524 5 29.5489C5.05771 32.017 7.0765 34 9.55844 34C11.083 34 12.5067 33.2381 13.3524 31.9696L17.9987 25V22Z" fill="#336600"/>
<path d="M10.9367 36.069C10.6987 35.2755 9.86247 34.8252 9.06898 35.0633C8.27549 35.3013 7.82521 36.1375 8.06326 36.931L10.9367 36.069ZM8.06326 36.931L8.28049 37.6551L11.154 36.7931L10.9367 36.069L8.06326 36.931ZM15.4642 43H18V40H15.4642V43ZM25.5 35.5V33.5H22.5V35.5H25.5ZM18 43C22.1421 43 25.5 39.6421 25.5 35.5H22.5C22.5 37.9853 20.4853 40 18 40V43ZM8.28049 37.6551C9.2322 40.8275 12.1521 43 15.4642 43V40C13.4769 40 11.725 38.6965 11.154 36.7931L8.28049 37.6551Z" fill="#339900"/>
<path d="M34.6464 31.9696L30 25L30 22L34.6464 15.0304C35.492 13.7619 36.9157 13 38.4403 13C40.9585 13 43 15.0415 43 17.5597L43 17.864C43 20.3189 41.3898 22.4831 39.0385 23.1885L38 23.5L39.0385 23.8115C41.3898 24.5169 43 26.6811 43 29.136L43 29.4403C43 31.9585 40.9585 34 38.4403 34C36.9157 34 35.492 33.2381 34.6464 31.9696Z" fill="#339900"/>
<g filter="url(#filter0_ii_447_712)">
<path d="M32.2333 31.7407L25.5 28H22.5L15.7667 31.7407C14.3677 32.5179 13.5 33.9926 13.5 35.5931C13.5 38.0269 15.4731 40 17.9069 40H18.364C20.8189 40 22.9831 38.3898 23.6885 36.0385L24 35L24.3115 36.0385C25.0169 38.3898 27.1811 40 29.636 40H30.0931C32.5269 40 34.5 38.0269 34.5 35.5931C34.5 33.9926 33.6323 32.5179 32.2333 31.7407Z" fill="#339900"/>
</g>
<rect x="22.5" y="19" width="3" height="9" fill="#339900"/>
<rect x="30" y="22" width="3" height="12" transform="rotate(90 30 22)" fill="#339900"/>
<path fill-rule="evenodd" clip-rule="evenodd" d="M30 22L34.2596 28.3894C35.3469 30.0204 37.1774 31 39.1375 31C40.6164 31 41.9674 30.4524 42.9987 29.5489C42.941 32.017 40.9222 34 38.4403 34C36.9157 34 35.492 33.2381 34.6464 31.9696L30 25V22Z" fill="#336600"/>
<path d="M16 10.2566C16 9.56259 16.5626 9 17.2566 9C18.1143 9 18.7199 9.84027 18.4487 10.654L18.2649 11.2053C18.1067 11.6799 17.6626 12 17.1623 12C16.5204 12 16 11.4796 16 10.8377V10.2566Z" fill="#66CC00"/>
<path d="M7 16.2566C7 15.5626 7.56259 15 8.25658 15C9.11427 15 9.71991 15.8403 9.44868 16.654L9.26491 17.2053C9.10671 17.6799 8.66256 18 8.16228 18C7.52037 18 7 17.4796 7 16.8377V16.2566Z" fill="#66CC00"/>
<path d="M38.5513 16.654C38.2801 15.8403 38.8857 15 39.7434 15C40.4374 15 41 15.5626 41 16.2566V16.8377C41 17.4796 40.4796 18 39.8377 18C39.3374 18 38.8933 17.6799 38.7351 17.2053L38.5513 16.654Z" fill="#66CC00"/>
<defs>
<filter id="filter0_ii_447_712" x="13.5" y="28" width="21" height="12" filterUnits="userSpaceOnUse" color-interpolation-filters="sRGB">
<feFlood flood-opacity="0" result="BackgroundImageFix"/>
<feBlend mode="normal" in="SourceGraphic" in2="BackgroundImageFix" result="shape"/>
<feColorMatrix in="SourceAlpha" type="matrix" values="0 0 0 0 0 0 0 0 0 0 0 0 0 0 0 0 0 0 127 0" result="hardAlpha"/>
<feOffset dy="-3"/>
<feComposite in2="hardAlpha" operator="arithmetic" k2="-1" k3="1"/>
<feColorMatrix type="matrix" values="0 0 0 0 0.4 0 0 0 0 0.8 0 0 0 0 0 0 0 0 1 0"/>
<feBlend mode="normal" in2="shape" result="effect1_innerShadow_447_712"/>
<feColorMatrix in="SourceAlpha" type="matrix" values="0 0 0 0 0 0 0 0 0 0 0 0 0 0 0 0 0 0 127 0" result="hardAlpha"/>
<feOffset dy="-3"/>
<feComposite in2="hardAlpha" operator="arithmetic" k2="-1" k3="1"/>
<feColorMatrix type="matrix" values="0 0 0 0 0.2 0 0 0 0 0.4 0 0 0 0 0 0 0 0 1 0"/>
<feBlend mode="normal" in2="effect1_innerShadow_447_712" result="effect2_innerShadow_447_712"/>
</filter>
</defs>
</svg>
