<?xml version="1.0" encoding="UTF-8" standalone="no"?>
<!DOCTYPE svg PUBLIC "-//W3C//DTD SVG 1.1//EN" "http://www.w3.org/Graphics/SVG/1.1/DTD/svg11.dtd">
<svg width="100%" height="100%" viewBox="0 0 30 15" version="1.1" xmlns="http://www.w3.org/2000/svg" xmlns:xlink="http://www.w3.org/1999/xlink" xml:space="preserve" xmlns:serif="http://www.serif.com/" style="fill-rule:evenodd;clip-rule:evenodd;stroke-linejoin:round;stroke-miterlimit:2;">
    <g transform="matrix(1,0,0,1,-96,-80)">
        <g transform="matrix(0.507837,0,0,0.294377,45.8307,67.6343)">
            <g id="Layer1">
                <path d="M100.245,42.045C99.716,41.919 99.194,42.336 98.941,43.085C98.688,43.835 98.758,44.756 99.117,45.387C104.724,55.269 118.805,80.086 124.922,90.867C125.671,92.186 126.733,92.946 127.851,92.961C128.968,92.976 130.039,92.245 130.802,90.947C137.095,80.228 151.681,55.386 157.519,45.442C157.89,44.809 157.971,43.873 157.719,43.105C157.467,42.337 156.938,41.905 156.399,42.027C152.823,42.831 147.557,44.016 145.303,44.523C144.606,44.68 143.977,45.269 143.553,46.162C140.489,52.614 127.834,79.264 127.834,79.264C127.834,79.264 116.031,52.947 113.094,46.397C112.675,45.463 112.035,44.839 111.32,44.67C109.043,44.13 103.782,42.883 100.245,42.045Z" style="fill:rgb(0,127,255);"/>
            </g>
        </g>
    </g>
</svg>
